<mxfile host="app.diagrams.net" agent="Mozilla/5.0 (Windows NT 10.0; Win64; x64) AppleWebKit/537.36 (KHTML, like Gecko) Chrome/130.0.0.0 Safari/537.36" version="24.8.2">
  <diagram name="Page-1" id="3ZAkbzcNPPDJo4CH8KN1">
    <mxGraphModel dx="880" dy="426" grid="1" gridSize="10" guides="1" tooltips="1" connect="1" arrows="1" fold="1" page="1" pageScale="1" pageWidth="850" pageHeight="1100" math="0" shadow="0">
      <root>
        <mxCell id="0" />
        <mxCell id="1" parent="0" />
        <mxCell id="Zzr-7_bgSSV_wWKr9wPa-6" value="" style="verticalLabelPosition=bottom;html=1;verticalAlign=top;align=center;strokeColor=none;fillColor=#00BEF2;shape=mxgraph.azure.user;" vertex="1" parent="1">
          <mxGeometry x="50" y="50" width="47.5" height="50" as="geometry" />
        </mxCell>
        <mxCell id="Zzr-7_bgSSV_wWKr9wPa-25" style="edgeStyle=orthogonalEdgeStyle;rounded=0;orthogonalLoop=1;jettySize=auto;html=1;entryX=1;entryY=0.5;entryDx=0;entryDy=0;dashed=1;strokeWidth=2;" edge="1" parent="1" source="Zzr-7_bgSSV_wWKr9wPa-1" target="Zzr-7_bgSSV_wWKr9wPa-18">
          <mxGeometry relative="1" as="geometry" />
        </mxCell>
        <mxCell id="Zzr-7_bgSSV_wWKr9wPa-1" value="SageMaker" style="rounded=1;whiteSpace=wrap;html=1;fillColor=#f5f5f5;fontColor=#333333;strokeColor=#666666;labelPosition=center;verticalLabelPosition=top;align=center;verticalAlign=bottom;" vertex="1" parent="1">
          <mxGeometry x="585" y="42" width="160" height="320" as="geometry" />
        </mxCell>
        <mxCell id="Zzr-7_bgSSV_wWKr9wPa-2" value="Ml Model" style="sketch=0;points=[[0,0,0],[0.25,0,0],[0.5,0,0],[0.75,0,0],[1,0,0],[0,1,0],[0.25,1,0],[0.5,1,0],[0.75,1,0],[1,1,0],[0,0.25,0],[0,0.5,0],[0,0.75,0],[1,0.25,0],[1,0.5,0],[1,0.75,0]];outlineConnect=0;fontColor=#232F3E;fillColor=#01A88D;strokeColor=#ffffff;dashed=0;verticalLabelPosition=bottom;verticalAlign=top;align=center;html=1;fontSize=12;fontStyle=0;aspect=fixed;shape=mxgraph.aws4.resourceIcon;resIcon=mxgraph.aws4.sagemaker;" vertex="1" parent="1">
          <mxGeometry x="630" y="217" width="78" height="78" as="geometry" />
        </mxCell>
        <mxCell id="Zzr-7_bgSSV_wWKr9wPa-27" style="edgeStyle=orthogonalEdgeStyle;rounded=0;orthogonalLoop=1;jettySize=auto;html=1;shape=link;width=-4;" edge="1" parent="1">
          <mxGeometry relative="1" as="geometry">
            <mxPoint x="664" y="151" as="sourcePoint" />
            <mxPoint x="668" y="211" as="targetPoint" />
          </mxGeometry>
        </mxCell>
        <mxCell id="Zzr-7_bgSSV_wWKr9wPa-3" value="Amazon SageMaker" style="outlineConnect=0;dashed=0;verticalLabelPosition=top;verticalAlign=bottom;align=center;html=1;shape=mxgraph.aws3.machine_learning;fillColor=#2E73B8;gradientColor=none;labelPosition=center;" vertex="1" parent="1">
          <mxGeometry x="630" y="79" width="70" height="80" as="geometry" />
        </mxCell>
        <mxCell id="Zzr-7_bgSSV_wWKr9wPa-8" value="Input Data" style="edgeStyle=orthogonalEdgeStyle;rounded=0;orthogonalLoop=1;jettySize=auto;html=1;strokeWidth=2;dashed=1;" edge="1" parent="1" source="Zzr-7_bgSSV_wWKr9wPa-4" target="Zzr-7_bgSSV_wWKr9wPa-7">
          <mxGeometry relative="1" as="geometry" />
        </mxCell>
        <mxCell id="Zzr-7_bgSSV_wWKr9wPa-4" value="User Input" style="sketch=0;points=[[0,0,0],[0.25,0,0],[0.5,0,0],[0.75,0,0],[1,0,0],[0,1,0],[0.25,1,0],[0.5,1,0],[0.75,1,0],[1,1,0],[0,0.25,0],[0,0.5,0],[0,0.75,0],[1,0.25,0],[1,0.5,0],[1,0.75,0]];outlineConnect=0;fontColor=#232F3E;fillColor=#01A88D;strokeColor=#ffffff;dashed=0;verticalLabelPosition=bottom;verticalAlign=top;align=center;html=1;fontSize=12;fontStyle=0;aspect=fixed;shape=mxgraph.aws4.resourceIcon;resIcon=mxgraph.aws4.desktop_and_app_streaming;" vertex="1" parent="1">
          <mxGeometry x="50" y="90" width="60" height="60" as="geometry" />
        </mxCell>
        <mxCell id="Zzr-7_bgSSV_wWKr9wPa-7" value="" style="shape=image;html=1;verticalAlign=top;verticalLabelPosition=bottom;labelBackgroundColor=#ffffff;imageAspect=0;aspect=fixed;image=https://cdn1.iconfinder.com/data/icons/office-icons-17/512/ilustracoes_04-14-128.png" vertex="1" parent="1">
          <mxGeometry x="35" y="250" width="90" height="90" as="geometry" />
        </mxCell>
        <mxCell id="Zzr-7_bgSSV_wWKr9wPa-9" value="API Rest" style="image;aspect=fixed;html=1;points=[];align=center;fontSize=12;image=img/lib/azure2/integration/API_Management_Services.svg;" vertex="1" parent="1">
          <mxGeometry x="217.5" y="90" width="65" height="60" as="geometry" />
        </mxCell>
        <mxCell id="Zzr-7_bgSSV_wWKr9wPa-10" style="edgeStyle=orthogonalEdgeStyle;rounded=0;orthogonalLoop=1;jettySize=auto;html=1;entryX=0.021;entryY=0.526;entryDx=0;entryDy=0;entryPerimeter=0;strokeWidth=2;dashed=1;" edge="1" parent="1" source="Zzr-7_bgSSV_wWKr9wPa-7" target="Zzr-7_bgSSV_wWKr9wPa-12">
          <mxGeometry relative="1" as="geometry">
            <mxPoint x="310" y="220" as="targetPoint" />
          </mxGeometry>
        </mxCell>
        <mxCell id="Zzr-7_bgSSV_wWKr9wPa-11" value="AWS API Gateway" style="outlineConnect=0;dashed=0;verticalLabelPosition=bottom;verticalAlign=top;align=center;html=1;shape=mxgraph.aws3.api_gateway;fillColor=#D9A741;gradientColor=none;" vertex="1" parent="1">
          <mxGeometry x="211.75" y="220" width="76.5" height="93" as="geometry" />
        </mxCell>
        <mxCell id="Zzr-7_bgSSV_wWKr9wPa-19" style="edgeStyle=orthogonalEdgeStyle;rounded=0;orthogonalLoop=1;jettySize=auto;html=1;exitX=1;exitY=0.75;exitDx=0;exitDy=0;entryX=0;entryY=0.75;entryDx=0;entryDy=0;strokeWidth=2;dashed=1;" edge="1" parent="1" source="Zzr-7_bgSSV_wWKr9wPa-12" target="Zzr-7_bgSSV_wWKr9wPa-18">
          <mxGeometry relative="1" as="geometry" />
        </mxCell>
        <mxCell id="Zzr-7_bgSSV_wWKr9wPa-12" value="Integration" style="rounded=1;whiteSpace=wrap;html=1;fillColor=none;labelPosition=center;verticalLabelPosition=top;align=center;verticalAlign=bottom;" vertex="1" parent="1">
          <mxGeometry x="190" y="40" width="120" height="325" as="geometry" />
        </mxCell>
        <mxCell id="Zzr-7_bgSSV_wWKr9wPa-26" style="edgeStyle=orthogonalEdgeStyle;rounded=0;orthogonalLoop=1;jettySize=auto;html=1;shape=link;" edge="1" parent="1" source="Zzr-7_bgSSV_wWKr9wPa-14" target="Zzr-7_bgSSV_wWKr9wPa-24">
          <mxGeometry relative="1" as="geometry" />
        </mxCell>
        <mxCell id="Zzr-7_bgSSV_wWKr9wPa-14" value="AWS Lambda" style="outlineConnect=0;dashed=0;verticalLabelPosition=top;verticalAlign=bottom;align=center;html=1;shape=mxgraph.aws3.lambda_function;fillColor=#F58534;gradientColor=none;labelPosition=center;" vertex="1" parent="1">
          <mxGeometry x="429" y="84" width="69" height="72" as="geometry" />
        </mxCell>
        <mxCell id="Zzr-7_bgSSV_wWKr9wPa-20" style="edgeStyle=orthogonalEdgeStyle;rounded=0;orthogonalLoop=1;jettySize=auto;html=1;exitX=0;exitY=0.25;exitDx=0;exitDy=0;entryX=1;entryY=0.25;entryDx=0;entryDy=0;dashed=1;strokeWidth=2;" edge="1" parent="1" source="Zzr-7_bgSSV_wWKr9wPa-18" target="Zzr-7_bgSSV_wWKr9wPa-12">
          <mxGeometry relative="1" as="geometry" />
        </mxCell>
        <mxCell id="Zzr-7_bgSSV_wWKr9wPa-18" value="EndPoint" style="rounded=1;whiteSpace=wrap;html=1;fillColor=none;labelPosition=center;verticalLabelPosition=top;align=center;verticalAlign=bottom;" vertex="1" parent="1">
          <mxGeometry x="405" y="40" width="120" height="325" as="geometry" />
        </mxCell>
        <mxCell id="Zzr-7_bgSSV_wWKr9wPa-24" value="ML EndPoint" style="sketch=0;outlineConnect=0;fontColor=#232F3E;gradientColor=none;fillColor=#01A88D;strokeColor=none;dashed=0;verticalLabelPosition=bottom;verticalAlign=top;align=center;html=1;fontSize=12;fontStyle=0;aspect=fixed;pointerEvents=1;shape=mxgraph.aws4.sagemaker_model;" vertex="1" parent="1">
          <mxGeometry x="425" y="227.5" width="78" height="78" as="geometry" />
        </mxCell>
      </root>
    </mxGraphModel>
  </diagram>
</mxfile>
